<svg width="256" height="283" viewBox="0 0 256 283" fill="none" xmlns="http://www.w3.org/2000/svg">
<g clip-path="url(#clip0_1447_1181)">
<path d="M119.553 134.916L1.05957 259.061C2.39024 263.777 4.78148 268.126 8.05052 271.776C11.3196 275.425 15.3798 278.28 19.921 280.12C24.4621 281.96 29.3639 282.738 34.2516 282.393C39.1393 282.049 43.8835 280.591 48.1216 278.132L181.449 202.198L119.553 134.916Z" fill="#EA4335"/>
<path d="M239.37 113.814L181.715 80.79L116.817 137.74L181.979 202.02L239.195 169.35C244.264 166.696 248.51 162.705 251.472 157.81C254.434 152.915 256 147.303 256 141.581C256 135.86 254.434 130.248 251.472 125.353C248.51 120.458 244.264 116.467 239.195 113.813L239.37 113.814Z" fill="#FBBC04"/>
<path d="M1.06033 23.487C0.344107 26.1348 -0.0124278 28.867 0.000330634 31.61V250.937C0.00775647 253.679 0.363949 256.409 1.06033 259.061L123.615 138.095L1.06033 23.487Z" fill="#4285F4"/>
<path d="M120.436 141.274L181.714 80.791L48.5636 4.503C43.5539 1.56907 37.8561 0.0153216 32.0506 2.95171e-07C17.6436 -0.0279997 4.97757 9.534 1.05957 23.399L120.436 141.274Z" fill="#34A853"/>
</g>
<defs>
<clipPath id="clip0_1447_1181">
<rect width="256" height="283" fill="white"/>
</clipPath>
</defs>
</svg>
